<svg xmlns="http://www.w3.org/2000/svg" viewBox="0 0 2400 1800" width="100%" height="100%">
  <defs>
    <!-- Background gradient -->
    <linearGradient id="bgGrad" x1="0" y1="0" x2="0" y2="1">
      <stop offset="0%" stop-color="#111111"/>
      <stop offset="100%" stop-color="#0d0d0d"/>
    </linearGradient>

    <!-- Panel gradient -->
    <linearGradient id="panelGrad" x1="0" y1="0" x2="0" y2="1">
      <stop offset="0%" stop-color="#1a1a1a"/>
      <stop offset="100%" stop-color="#161616"/>
    </linearGradient>

    <!-- Image gradient -->
    <linearGradient id="skyGrad" x1="0" y1="0" x2="0" y2="1">
      <stop offset="0%" stop-color="#0a1628"/>
      <stop offset="40%" stop-color="#0f2847"/>
      <stop offset="100%" stop-color="#1a1a2e"/>
    </linearGradient>

    <!-- Accent gradients -->
    <linearGradient id="cyanGrad" x1="0" y1="0" x2="1" y2="1">
      <stop offset="0%" stop-color="#00b4d8"/>
      <stop offset="100%" stop-color="#0077b6"/>
    </linearGradient>

    <linearGradient id="coralGrad" x1="0" y1="0" x2="1" y2="1">
      <stop offset="0%" stop-color="#ff6b6b"/>
      <stop offset="100%" stop-color="#ee5a24"/>
    </linearGradient>

    <linearGradient id="mintGrad" x1="0" y1="0" x2="1" y2="1">
      <stop offset="0%" stop-color="#4ecdc4"/>
      <stop offset="100%" stop-color="#2ecc71"/>
    </linearGradient>

    <!-- Halftone pattern -->
    <pattern id="halftone" patternUnits="userSpaceOnUse" width="8" height="8">
      <rect width="8" height="8" fill="none"/>
      <circle cx="4" cy="4" r="0.8" fill="#ffffff" opacity="0.03"/>
    </pattern>

    <!-- Grid pattern -->
    <pattern id="grid" patternUnits="userSpaceOnUse" width="40" height="40">
      <rect width="40" height="40" fill="none"/>
      <line x1="40" y1="0" x2="40" y2="40" stroke="#ffffff" stroke-width="0.3" opacity="0.04"/>
      <line x1="0" y1="40" x2="40" y2="40" stroke="#ffffff" stroke-width="0.3" opacity="0.04"/>
    </pattern>

    <!-- Grain texture -->
    <filter id="grain">
      <feTurbulence type="fractalNoise" baseFrequency="0.9" numOctaves="4" result="noise"/>
      <feColorMatrix type="saturate" values="0" in="noise" result="grayNoise"/>
      <feBlend in="SourceGraphic" in2="grayNoise" mode="multiply"/>
    </filter>

    <!-- Soft shadow -->
    <filter id="shadow">
      <feDropShadow dx="0" dy="4" stdDeviation="8" flood-color="#000000" flood-opacity="0.4"/>
    </filter>

    <!-- Glow -->
    <filter id="glow">
      <feGaussianBlur stdDeviation="3" result="blur"/>
      <feMerge>
        <feMergeNode in="blur"/>
        <feMergeNode in="SourceGraphic"/>
      </feMerge>
    </filter>

    <filter id="glowSmall">
      <feGaussianBlur stdDeviation="1.5" result="blur"/>
      <feMerge>
        <feMergeNode in="blur"/>
        <feMergeNode in="SourceGraphic"/>
      </feMerge>
    </filter>
  </defs>

  <!-- Background -->
  <rect width="2400" height="1800" fill="url(#bgGrad)"/>
  <rect width="2400" height="1800" fill="url(#grid)"/>

  <!-- ============================================ -->
  <!-- PANEL 1: LOGO COVER                          -->
  <!-- ============================================ -->
  <g transform="translate(60, 60)">
    <rect width="740" height="540" rx="4" fill="url(#panelGrad)"/>
    <rect width="740" height="540" rx="4" fill="none" stroke="#2a2a2a" stroke-width="0.5"/>

    <!-- Logo mark -->
    <g transform="translate(370, 200)">
      <!-- T vertical stem -->
      <rect x="-18" y="-70" width="36" height="140" rx="3" fill="#f5f5f5"/>
      <!-- T crossbar -->
      <rect x="-80" y="-70" width="125" height="36" rx="3" fill="#f5f5f5"/>

      <!-- Route cutout in vertical stem -->
      <path d="M -12,-25 Q 12,-12 12,18 Q 12,34 -6,42" stroke="#121212" stroke-width="5" fill="none" stroke-linecap="round"/>

      <!-- Signal line entering from left -->
      <path d="M -80,-52 Q -56,-52 -46,-52" stroke="#00b4d8" stroke-width="3.5" fill="none" stroke-linecap="round"/>

      <!-- Signal path through T -->
      <path d="M -46,-52 Q -24,-52 -16,-30" stroke="#00b4d8" stroke-width="3.5" fill="none" stroke-linecap="round"/>

      <!-- Route line going down -->
      <path d="M 16,26 Q 28,40 44,46 Q 60,52 78,48" stroke="#00b4d8" stroke-width="3" fill="none" stroke-linecap="round"/>

      <!-- Waypoints -->
      <circle cx="28" cy="41" r="3.5" fill="#4ecdc4" opacity="0.8"/>
      <circle cx="62" cy="51" r="3.5" fill="#4ecdc4" opacity="0.8"/>

      <!-- Location pin -->
      <circle cx="88" cy="48" r="7" fill="#ff6b6b" filter="url(#glowSmall)"/>
      <circle cx="88" cy="48" r="3" fill="#f5f5f5"/>
    </g>

    <!-- Wordmark -->
    <text x="370" y="350" text-anchor="middle" font-family="system-ui, -apple-system, sans-serif" font-size="44" font-weight="700" letter-spacing="14" fill="#f5f5f5">TRACE</text>

    <!-- Label -->
    <text x="370" y="385" text-anchor="middle" font-family="system-ui, -apple-system, sans-serif" font-size="11" font-weight="400" letter-spacing="5" fill="#6b7280">ENTERPRISE TRACKING</text>

    <!-- Divider -->
    <line x1="280" y1="415" x2="460" y2="415" stroke="#2a2a2a" stroke-width="1"/>

    <!-- Tagline -->
    <text x="370" y="445" text-anchor="middle" font-family="system-ui, -apple-system, sans-serif" font-size="12" font-weight="400" letter-spacing="3" fill="#4a4a4a">EVERYTHING IN VIEW.</text>

    <!-- Page number -->
    <text x="700" y="515" text-anchor="end" font-family="'SF Mono', 'Cascadia Code', monospace" font-size="11" fill="#3a3a3a">01</text>
    <text x="20" y="515" font-family="'SF Mono', 'Cascadia Code', monospace" font-size="9" fill="#3a3a3a" letter-spacing="2">LOGO COVER</text>

    <!-- Corner accent -->
    <circle cx="20" cy="520" r="2" fill="#00b4d8" opacity="0.4"/>
  </g>

  <!-- ============================================ -->
  <!-- PANEL 2: LOGO CONSTRUCTION                   -->
  <!-- ============================================ -->
  <g transform="translate(830, 60)">
    <rect width="740" height="540" rx="4" fill="url(#panelGrad)"/>
    <rect width="740" height="540" rx="4" fill="none" stroke="#2a2a2a" stroke-width="0.5"/>

    <g transform="translate(370, 230)">
      <!-- Construction grid -->
      <line x1="-120" y1="0" x2="120" y2="0" stroke="#ffffff" stroke-width="0.3" opacity="0.1"/>
      <line x1="0" y1="-120" x2="0" y2="120" stroke="#ffffff" stroke-width="0.3" opacity="0.1"/>
      <circle cx="0" cy="0" r="100" fill="none" stroke="#ffffff" stroke-width="0.3" opacity="0.06"/>
      <circle cx="0" cy="0" r="80" fill="none" stroke="#ffffff" stroke-width="0.3" opacity="0.06"/>
      <circle cx="0" cy="0" r="60" fill="none" stroke="#ffffff" stroke-width="0.3" opacity="0.06"/>
      <circle cx="0" cy="0" r="40" fill="none" stroke="#ffffff" stroke-width="0.3" opacity="0.06"/>

      <!-- Diagonal guides -->
      <line x1="-100" y1="-100" x2="100" y2="100" stroke="#ffffff" stroke-width="0.3" opacity="0.06"/>
      <line x1="-100" y1="100" x2="100" y2="-100" stroke="#ffffff" stroke-width="0.3" opacity="0.06"/>

      <!-- Construction circles for the path -->
      <circle cx="-30" cy="-40" r="6" fill="none" stroke="#00b4d8" stroke-width="0.8" opacity="0.5"/>
      <circle cx="-18" cy="-18" r="6" fill="none" stroke="#00b4d8" stroke-width="0.8" opacity="0.5"/>
      <circle cx="0" cy="0" r="6" fill="none" stroke="#00b4d8" stroke-width="0.8" opacity="0.5"/>
      <circle cx="18" cy="18" r="6" fill="none" stroke="#00b4d8" stroke-width="0.8" opacity="0.5"/>
      <circle cx="36" cy="36" r="6" fill="none" stroke="#00b4d8" stroke-width="0.8" opacity="0.5"/>

      <!-- The constructed T-mark (semi-transparent) -->
      <rect x="-18" y="-70" width="36" height="140" rx="3" fill="#f5f5f5" opacity="0.15"/>
      <rect x="-80" y="-70" width="125" height="36" rx="3" fill="#f5f5f5" opacity="0.15"/>

      <!-- Construction dimension lines -->
      <line x1="-80" y1="-85" x2="-80" y2="-50" stroke="#4ecdc4" stroke-width="0.5" opacity="0.4"/>
      <line x1="45" y1="-85" x2="45" y2="-50" stroke="#4ecdc4" stroke-width="0.5" opacity="0.4"/>
      <line x1="-80" y1="-82" x2="45" y2="-82" stroke="#4ecdc4" stroke-width="0.5" opacity="0.4"/>
      <polygon points="-80,-82 45,-82 45,-78 -80,-78" fill="#4ecdc4" opacity="0.15"/>

      <line x1="-95" y1="-70" x2="-60" y2="-70" stroke="#4ecdc4" stroke-width="0.5" opacity="0.4"/>
      <line x1="-95" y1="-34" x2="-60" y2="-34" stroke="#4ecdc4" stroke-width="0.5" opacity="0.4"/>
      <line x1="-92" y1="-70" x2="-92" y2="-34" stroke="#4ecdc4" stroke-width="0.5" opacity="0.4"/>
      <polygon points="-92,-70 -92,-34 -88,-34 -88,-70" fill="#4ecdc4" opacity="0.15"/>

      <!-- Angle arc -->
      <path d="M -18,-70 Q 0,-80 45,-70" fill="none" stroke="#ff6b6b" stroke-width="0.5" opacity="0.4"/>

      <!-- Route construction dots -->
      <circle cx="-46" cy="-52" r="2" fill="#00b4d8" opacity="0.6"/>
      <circle cx="-16" cy="-30" r="2" fill="#00b4d8" opacity="0.6"/>
      <circle cx="16" cy="26" r="2" fill="#00b4d8" opacity="0.6"/>
      <circle cx="44" cy="46" r="2" fill="#00b4d8" opacity="0.6"/>

      <!-- Bezier curve guide -->
      <path d="M -46,-52 C -30,-52 -20,-40 -16,-30" stroke="#00b4d8" stroke-width="0.5" fill="none" opacity="0.3" stroke-dasharray="2,3"/>
      <path d="M 16,26 C 22,34 32,42 44,46" stroke="#00b4d8" stroke-width="0.5" fill="none" opacity="0.3" stroke-dasharray="2,3"/>

      <!-- Final mark (below, smaller, completed) -->
      <g transform="translate(0, 95) scale(0.5)">
        <rect x="-18" y="-70" width="36" height="140" rx="3" fill="#f5f5f5"/>
        <rect x="-80" y="-70" width="125" height="36" rx="3" fill="#f5f5f5"/>
        <path d="M -12,-25 Q 12,-12 12,18 Q 12,34 -6,42" stroke="#121212" stroke-width="5" fill="none" stroke-linecap="round"/>
        <path d="M -80,-52 Q -56,-52 -46,-52" stroke="#00b4d8" stroke-width="3.5" fill="none" stroke-linecap="round"/>
        <path d="M -46,-52 Q -24,-52 -16,-30" stroke="#00b4d8" stroke-width="3.5" fill="none" stroke-linecap="round"/>
        <path d="M 16,26 Q 28,40 44,46 Q 60,52 78,48" stroke="#00b4d8" stroke-width="3" fill="none" stroke-linecap="round"/>
        <circle cx="88" cy="48" r="7" fill="#ff6b6b"/>
        <circle cx="88" cy="48" r="3" fill="#f5f5f5"/>
      </g>
    </g>

    <!-- Page number -->
    <text x="700" y="515" text-anchor="end" font-family="'SF Mono', 'Cascadia Code', monospace" font-size="11" fill="#3a3a3a">02</text>
    <text x="20" y="515" font-family="'SF Mono', 'Cascadia Code', monospace" font-size="9" fill="#3a3a3a" letter-spacing="2">LOGO CONSTRUCTION</text>
  </g>

  <!-- ============================================ -->
  <!-- PANEL 3: DIGITAL APPLICATION                 -->
  <!-- ============================================ -->
  <g transform="translate(1600, 60)">
    <rect width="740" height="540" rx="4" fill="url(#panelGrad)"/>
    <rect width="740" height="540" rx="4" fill="none" stroke="#2a2a2a" stroke-width="0.5"/>

    <g transform="translate(60, 60)">
      <!-- Browser chrome -->
      <rect x="0" y="0" width="620" height="380" rx="8" fill="#0d0d0d" filter="url(#shadow)"/>
      <rect x="0" y="0" width="620" height="40" rx="8" fill="#1a1a1a"/>
      <rect x="0" y="20" width="620" height="20" fill="#1a1a1a"/>

      <!-- Traffic lights -->
      <circle cx="20" cy="20" r="5" fill="#ff5f57"/>
      <circle cx="38" cy="20" r="5" fill="#febc2e"/>
      <circle cx="56" cy="20" r="5" fill="#28c840"/>

      <!-- URL bar -->
      <rect x="160" y="12" width="300" height="16" rx="8" fill="#2a2a2a"/>
      <text x="210" y="24" font-family="system-ui, -apple-system, sans-serif" font-size="9" fill="#888">app.trace.tech/dashboard</text>

      <!-- Page content area -->
      <!-- Dashboard header -->
      <rect x="0" y="40" width="620" height="50" fill="#141414"/>
      <rect x="0" y="40" width="620" height="0.5" fill="#2a2a2a"/>

      <!-- Logo favicon in browser -->
      <rect x="20" y="52" width="26" height="26" rx="4" fill="#00b4d8"/>
      <text x="25" y="70" font-family="system-ui, -apple-system, sans-serif" font-size="12" font-weight="700" fill="#121212">T</text>

      <!-- Nav items -->
      <text x="65" y="70" font-family="system-ui, -apple-system, sans-serif" font-size="11" fill="#f5f5f5" font-weight="500">TRACE</text>
      <text x="115" y="70" font-family="system-ui, -apple-system, sans-serif" font-size="10" fill="#6b7280">Dashboard</text>
      <text x="200" y="70" font-family="system-ui, -apple-system, sans-serif" font-size="10" fill="#6b7280">Shipments</text>
      <text x="285" y="70" font-family="system-ui, -apple-system, sans-serif" font-size="10" fill="#6b7280">Assets</text>
      <text x="355" y="70" font-family="system-ui, -apple-system, sans-serif" font-size="10" fill="#6b7280">Analytics</text>

      <!-- Status chip -->
      <rect x="480" y="56" width="60" height="18" rx="9" fill="#00b4d8" opacity="0.15"/>
      <circle cx="494" cy="65" r="3" fill="#00b4d8" filter="url(#glowSmall)"/>
      <text x="502" y="69" font-family="system-ui, -apple-system, sans-serif" font-size="8" fill="#00b4d8">Live</text>

      <!-- Dashboard content -->
      <rect x="0" y="90" width="620" height="290" fill="#121212"/>

      <!-- Card grids -->
      <rect x="20" y="110" width="180" height="80" rx="6" fill="#1a1a1a" stroke="#2a2a2a" stroke-width="0.5"/>
      <text x="35" y="135" font-family="system-ui, -apple-system, sans-serif" font-size="9" fill="#6b7280">Active Shipments</text>
      <text x="35" y="165" font-family="system-ui, -apple-system, sans-serif" font-size="24" font-weight="700" fill="#f5f5f5">2,847</text>
      <text x="35" y="180" font-family="system-ui, -apple-system, sans-serif" font-size="8" fill="#4ecdc4">+12.4% vs last week</text>

      <rect x="220" y="110" width="180" height="80" rx="6" fill="#1a1a1a" stroke="#2a2a2a" stroke-width="0.5"/>
      <text x="235" y="135" font-family="system-ui, -apple-system, sans-serif" font-size="9" fill="#6b7280">In Transit</text>
      <text x="235" y="165" font-family="system-ui, -apple-system, sans-serif" font-size="24" font-weight="700" fill="#f5f5f5">1,203</text>
      <circle cx="376" cy="165" r="4" fill="#00b4d8" opacity="0.6"/>

      <rect x="420" y="110" width="180" height="80" rx="6" fill="#1a1a1a" stroke="#2a2a2a" stroke-width="0.5"/>
      <text x="435" y="135" font-family="system-ui, -apple-system, sans-serif" font-size="9" fill="#6b7280">Delayed</text>
      <text x="435" y="165" font-family="system-ui, -apple-system, sans-serif" font-size="24" font-weight="700" fill="#f5f5f5">23</text>
      <text x="435" y="180" font-family="system-ui, -apple-system, sans-serif" font-size="8" fill="#ff6b6b">0.8% of total</text>

      <!-- Activity feed -->
      <rect x="20" y="205" width="580" height="60" rx="6" fill="#1a1a1a" stroke="#2a2a2a" stroke-width="0.5"/>
      <circle cx="40" cy="225" r="4" fill="#00b4d8"/>
      <text x="55" y="228" font-family="system-ui, -apple-system, sans-serif" font-size="10" fill="#d0d0d0">Shipment #TR-4829 scanned at Chicago Hub</text>
      <text x="55" y="243" font-family="system-ui, -apple-system, sans-serif" font-size="8" fill="#6b7280">2 minutes ago</text>

      <rect x="20" y="275" width="580" height="1" fill="#2a2a2a" opacity="0.5"/>

      <!-- Search/input bar -->
      <rect x="20" y="290" width="580" height="32" rx="4" fill="#1a1a1a" stroke="#2a2a2a" stroke-width="0.5"/>
      <text x="45" y="310" font-family="system-ui, -apple-system, sans-serif" font-size="10" fill="#4a4a4a">Search shipments, assets, or locations...</text>
    </g>

    <text x="700" y="515" text-anchor="end" font-family="'SF Mono', 'Cascadia Code', monospace" font-size="11" fill="#3a3a3a">03</text>
    <text x="20" y="515" font-family="'SF Mono', 'Cascadia Code', monospace" font-size="9" fill="#3a3a3a" letter-spacing="2">DIGITAL APPLICATION</text>
  </g>

  <!-- ============================================ -->
  <!-- PANEL 4: BRAND ESSENCE                       -->
  <!-- ============================================ -->
  <g transform="translate(60, 630)">
    <rect width="740" height="540" rx="4" fill="url(#panelGrad)"/>
    <rect width="740" height="540" rx="4" fill="none" stroke="#2a2a2a" stroke-width="0.5"/>

    <g transform="translate(370, 270)">
      <!-- Large tagline -->
      <text x="0" y="-40" text-anchor="middle" font-family="system-ui, -apple-system, sans-serif" font-size="72" font-weight="300" letter-spacing="6" fill="#f5f5f5">Everything</text>
      <text x="0" y="45" text-anchor="middle" font-family="system-ui, -apple-system, sans-serif" font-size="72" font-weight="600" letter-spacing="4" fill="#f5f5f5">in view.</text>

      <!-- Accent dot -->
      <circle cx="210" cy="45" r="5" fill="#00b4d8" opacity="0.8"/>

      <!-- Subtle line -->
      <line x1="-80" y1="80" x2="80" y2="80" stroke="#2a2a2a" stroke-width="1"/>

      <!-- Small descriptor -->
      <text x="0" y="110" text-anchor="middle" font-family="system-ui, -apple-system, sans-serif" font-size="11" font-weight="400" letter-spacing="4" fill="#4a4a4a">REAL-TIME ENTERPRISE VISIBILITY</text>
    </g>

    <text x="700" y="515" text-anchor="end" font-family="'SF Mono', 'Cascadia Code', monospace" font-size="11" fill="#3a3a3a">04</text>
    <text x="20" y="515" font-family="'SF Mono', 'Cascadia Code', monospace" font-size="9" fill="#3a3a3a" letter-spacing="2">BRAND ESSENCE</text>
  </g>

  <!-- ============================================ -->
  <!-- PANEL 5: COLOR SYSTEM                        -->
  <!-- ============================================ -->
  <g transform="translate(830, 630)">
    <rect width="740" height="540" rx="4" fill="url(#panelGrad)"/>
    <rect width="740" height="540" rx="4" fill="none" stroke="#2a2a2a" stroke-width="0.5"/>

    <g transform="translate(80, 100)">
      <!-- Title -->
      <text x="0" y="0" font-family="system-ui, -apple-system, sans-serif" font-size="13" font-weight="500" letter-spacing="3" fill="#6b7280">PALETTE</text>
      <line x1="0" y1="12" x2="40" y2="12" stroke="#00b4d8" stroke-width="1.5"/>

      <!-- Color swatch 1: Navy -->
      <g transform="translate(0, 50)">
        <rect x="0" y="0" width="100" height="100" rx="6" fill="#0a1628" stroke="#2a2a2a" stroke-width="0.5"/>
        <rect x="0" y="0" width="100" height="100" rx="6" fill="url(#halftone)"/>
        <text x="50" y="-10" text-anchor="middle" font-family="'SF Mono', 'Cascadia Code', monospace" font-size="9" fill="#888">DEEP NAVY</text>
        <text x="50" y="120" text-anchor="middle" font-family="'SF Mono', 'Cascadia Code', monospace" font-size="9" fill="#4a4a4a">#0A1628</text>
      </g>

      <!-- Color swatch 2: Cyan -->
      <g transform="translate(130, 50)">
        <rect x="0" y="0" width="100" height="100" rx="6" fill="#00b4d8"/>
        <text x="50" y="-10" text-anchor="middle" font-family="'SF Mono', 'Cascadia Code', monospace" font-size="9" fill="#888">CYAN SIGNAL</text>
        <text x="50" y="120" text-anchor="middle" font-family="'SF Mono', 'Cascadia Code', monospace" font-size="9" fill="#4a4a4a">#00B4D8</text>
      </g>

      <!-- Color swatch 3: Coral -->
      <g transform="translate(260, 50)">
        <rect x="0" y="0" width="100" height="100" rx="6" fill="#ff6b6b"/>
        <text x="50" y="-10" text-anchor="middle" font-family="'SF Mono', 'Cascadia Code', monospace" font-size="9" fill="#888">CORAL PIN</text>
        <text x="50" y="120" text-anchor="middle" font-family="'SF Mono', 'Cascadia Code', monospace" font-size="9" fill="#4a4a4a">#FF6B6B</text>
      </g>

      <!-- Color swatch 4: Mint -->
      <g transform="translate(390, 50)">
        <rect x="0" y="0" width="100" height="100" rx="6" fill="#4ecdc4"/>
        <text x="50" y="-10" text-anchor="middle" font-family="'SF Mono', 'Cascadia Code', monospace" font-size="9" fill="#888">MINT</text>
        <text x="50" y="120" text-anchor="middle" font-family="'SF Mono', 'Cascadia Code', monospace" font-size="9" fill="#4a4a4a">#4ECDC4</text>
      </g>

      <!-- Color swatch 5: Warm White -->
      <g transform="translate(520, 50)">
        <rect x="0" y="0" width="100" height="100" rx="6" fill="#f5f5f5" stroke="#2a2a2a" stroke-width="0.5"/>
        <text x="50" y="-10" text-anchor="middle" font-family="'SF Mono', 'Cascadia Code', monospace" font-size="9" fill="#888">WARM WHITE</text>
        <text x="50" y="120" text-anchor="middle" font-family="'SF Mono', 'Cascadia Code', monospace" font-size="9" fill="#4a4a4a">#F5F5F5</text>
      </g>

      <!-- Neutral row -->
      <text x="0" y="210" font-family="system-ui, -apple-system, sans-serif" font-size="11" font-weight="400" letter-spacing="2" fill="#6b7280">NEUTRALS</text>

      <rect x="0" y="230" width="40" height="40" rx="4" fill="#121212" stroke="#2a2a2a" stroke-width="0.5"/>
      <rect x="50" y="230" width="40" height="40" rx="4" fill="#1a1a1a" stroke="#2a2a2a" stroke-width="0.5"/>
      <rect x="100" y="230" width="40" height="40" rx="4" fill="#2a2a2a" stroke="#2a2a2a" stroke-width="0.5"/>
      <rect x="150" y="230" width="40" height="40" rx="4" fill="#6b7280" stroke="#2a2a2a" stroke-width="0.5"/>
      <rect x="200" y="230" width="40" height="40" rx="4" fill="#d0d0d0" stroke="#2a2a2a" stroke-width="0.5"/>

      <!-- Usage note -->
      <text x="0" y="300" font-family="'SF Mono', 'Cascadia Code', monospace" font-size="8" fill="#3a3a3a">Primary accent: Cyan Signal for UI, links, waypoints</text>
      <text x="0" y="315" font-family="'SF Mono', 'Cascadia Code', monospace" font-size="8" fill="#3a3a3a">Alert accent: Coral Pin for delays, warnings, location markers</text>
      <text x="0" y="330" font-family="'SF Mono', 'Cascadia Code', monospace" font-size="8" fill="#3a3a3a">Secondary: Mint for success states, completed routes</text>
    </g>

    <text x="700" y="515" text-anchor="end" font-family="'SF Mono', 'Cascadia Code', monospace" font-size="11" fill="#3a3a3a">05</text>
    <text x="20" y="515" font-family="'SF Mono', 'Cascadia Code', monospace" font-size="9" fill="#3a3a3a" letter-spacing="2">COLOR SYSTEM</text>
  </g>

  <!-- ============================================ -->
  <!-- PANEL 6: TYPOGRAPHY                          -->
  <!-- ============================================ -->
  <g transform="translate(1600, 630)">
    <rect width="740" height="540" rx="4" fill="url(#panelGrad)"/>
    <rect width="740" height="540" rx="4" fill="none" stroke="#2a2a2a" stroke-width="0.5"/>

    <g transform="translate(60, 80)">
      <!-- Title -->
      <text x="0" y="0" font-family="system-ui, -apple-system, sans-serif" font-size="13" font-weight="500" letter-spacing="3" fill="#6b7280">TYPOGRAPHY</text>
      <line x1="0" y1="12" x2="40" y2="12" stroke="#00b4d8" stroke-width="1.5"/>

      <!-- Primary type specimen -->
      <text x="0" y="60" font-family="system-ui, -apple-system, sans-serif" font-size="11" font-weight="400" letter-spacing="2" fill="#6b7280">PRIMARY — INTER</text>

      <!-- Aa specimen -->
      <text x="0" y="110" font-family="system-ui, -apple-system, sans-serif" font-size="56" font-weight="300" fill="#f5f5f5">Aa</text>
      <text x="80" y="110" font-family="system-ui, -apple-system, sans-serif" font-size="56" font-weight="400" fill="#f5f5f5">Aa</text>
      <text x="170" y="110" font-family="system-ui, -apple-system, sans-serif" font-size="56" font-weight="600" fill="#f5f5f5">Aa</text>
      <text x="280" y="110" font-family="system-ui, -apple-system, sans-serif" font-size="56" font-weight="700" fill="#f5f5f5">Aa</text>

      <!-- Alphabet -->
      <text x="0" y="160" font-family="system-ui, -apple-system, sans-serif" font-size="16" font-weight="400" fill="#6b7280">A B C D E F G H I J K L M N O P Q R S T U V W X Y Z</text>
      <text x="0" y="185" font-family="system-ui, -apple-system, sans-serif" font-size="16" font-weight="400" fill="#4a4a4a">a b c d e f g h i j k l m n o p q r s t u v w x y z</text>
      <text x="0" y="210" font-family="system-ui, -apple-system, sans-serif" font-size="16" font-weight="400" fill="#4a4a4a">0 1 2 3 4 5 6 7 8 9 . , : ; ! ? @ # $ % &amp; * ( )</text>

      <!-- Weights -->
      <text x="0" y="260" font-family="system-ui, -apple-system, sans-serif" font-size="11" font-weight="400" letter-spacing="2" fill="#6b7280">WEIGHTS</text>
      <text x="0" y="290" font-family="system-ui, -apple-system, sans-serif" font-size="14" font-weight="300" fill="#6b7280">Light 300 — TRACE Enterprise</text>
      <text x="0" y="315" font-family="system-ui, -apple-system, sans-serif" font-size="14" font-weight="400" fill="#d0d0d0">Regular 400 — TRACE Enterprise</text>
      <text x="0" y="340" font-family="system-ui, -apple-system, sans-serif" font-size="14" font-weight="600" fill="#f5f5f5">Semibold 600 — TRACE Enterprise</text>
      <text x="0" y="365" font-family="system-ui, -apple-system, sans-serif" font-size="14" font-weight="700" fill="#f5f5f5">Bold 700 — TRACE Enterprise</text>

      <!-- Monospace secondary -->
      <text x="380" y="260" font-family="'SF Mono', 'Cascadia Code', monospace" font-size="11" font-weight="400" letter-spacing="2" fill="#6b7280">MONO — SF MONO</text>
      <text x="380" y="290" font-family="'SF Mono', 'Cascadia Code', monospace" font-size="11" fill="#6b7280">TRACE_Enterprise 0.1.2</text>
      <text x="380" y="310" font-family="'SF Mono', 'Cascadia Code', monospace" font-size="11" fill="#4a4a4a">npm install @trace/sdk</text>
      <text x="380" y="330" font-family="'SF Mono', 'Cascadia Code', monospace" font-size="11" fill="#4ecdc4">status: operational ✓</text>
      <text x="380" y="350" font-family="'SF Mono', 'Cascadia Code', monospace" font-size="11" fill="#00b4d8">api.trace.tech/v2</text>
    </g>

    <text x="700" y="515" text-anchor="end" font-family="'SF Mono', 'Cascadia Code', monospace" font-size="11" fill="#3a3a3a">06</text>
    <text x="20" y="515" font-family="'SF Mono', 'Cascadia Code', monospace" font-size="9" fill="#3a3a3a" letter-spacing="2">TYPOGRAPHY</text>
  </g>

  <!-- ============================================ -->
  <!-- PANEL 7: PHYSICAL APPLICATION                -->
  <!-- ============================================ -->
  <g transform="translate(60, 1200)">
    <rect width="740" height="540" rx="4" fill="url(#panelGrad)"/>
    <rect width="740" height="540" rx="4" fill="none" stroke="#2a2a2a" stroke-width="0.5"/>

    <g transform="translate(80, 80)">
      <text x="0" y="0" font-family="system-ui, -apple-system, sans-serif" font-size="13" font-weight="500" letter-spacing="3" fill="#6b7280">PHYSICAL APPLICATION</text>
      <line x1="0" y1="12" x2="40" y2="12" stroke="#00b4d8" stroke-width="1.5"/>

      <!-- Business card -->
      <g transform="translate(0, 50)">
        <rect x="0" y="0" width="240" height="150" rx="6" fill="#121212" stroke="#2a2a2a" stroke-width="0.5" filter="url(#shadow)"/>
        <!-- Card logo -->
        <rect x="20" y="20" width="32" height="32" rx="4" fill="#00b4d8"/>
        <text x="27" y="42" font-family="system-ui, -apple-system, sans-serif" font-size="16" font-weight="700" fill="#121212">T</text>
        <text x="62" y="40" font-family="system-ui, -apple-system, sans-serif" font-size="14" font-weight="700" letter-spacing="4" fill="#f5f5f5">TRACE</text>
        <line x1="20" y1="65" x2="220" y2="65" stroke="#2a2a2a" stroke-width="0.5"/>
        <text x="20" y="85" font-family="system-ui, -apple-system, sans-serif" font-size="9" fill="#6b7280">Sarah Chen</text>
        <text x="20" y="100" font-family="system-ui, -apple-system, sans-serif" font-size="8" fill="#4a4a4a">Director of Operations</text>
        <text x="20" y="120" font-family="'SF Mono', 'Cascadia Code', monospace" font-size="7" fill="#3a3a3a">s.chen@trace.tech</text>
        <text x="20" y="135" font-family="'SF Mono', 'Cascadia Code', monospace" font-size="7" fill="#3a3a3a">trace.tech</text>
      </g>

      <!-- Badge / Enamel pin -->
      <g transform="translate(340, 60)">
        <circle cx="0" cy="0" r="40" fill="#121212" stroke="#2a2a2a" stroke-width="1" filter="url(#shadow)"/>
        <!-- Small T-mark -->
        <rect x="-8" y="-12" width="4" height="24" rx="1" fill="#f5f5f5"/>
        <rect x="-4" y="-12" width="16" height="4" rx="1" fill="#f5f5f5"/>
        <circle cx="16" cy="12" r="4" fill="#ff6b6b"/>
        <text y="60" text-anchor="middle" font-family="system-ui, -apple-system, sans-serif" font-size="8" fill="#4a4a4a" letter-spacing="3">BADGE</text>
      </g>

      <!-- Folder mockup -->
      <g transform="translate(0, 240)">
        <rect x="0" y="0" width="200" height="150" rx="4" fill="#1a1a1a" stroke="#2a2a2a" stroke-width="0.5" filter="url(#shadow)"/>
        <rect x="0" y="0" width="200" height="20" rx="4" fill="#2a2a2a"/>
        <rect x="0" y="10" width="200" height="10" fill="#2a2a2a"/>
        <rect x="15" y="35" width="80" height="12" rx="2" fill="#00b4d8" opacity="0.15"/>
        <text x="20" y="44" font-family="system-ui, -apple-system, sans-serif" font-size="7" fill="#00b4d8">TRACE_MASTER</text>
        <rect x="15" y="55" width="100" height="8" rx="2" fill="#2a2a2a"/>
        <rect x="15" y="70" width="120" height="8" rx="2" fill="#2a2a2a"/>
        <rect x="15" y="85" width="90" height="8" rx="2" fill="#2a2a2a"/>
        <rect x="15" y="105" width="170" height="30" rx="3" fill="#0a1628" opacity="0.5"/>
        <text x="20" y="124" font-family="system-ui, -apple-system, sans-serif" font-size="7" fill="#6b7280">Route map preview</text>
        <text y="145" font-family="system-ui, -apple-system, sans-serif" font-size="8" fill="#4a4a4a" letter-spacing="2">FOLDER</text>
      </g>

      <!-- Sticker/Seal -->
      <g transform="translate(340, 250)">
        <rect x="-45" y="0" width="90" height="90" rx="3" fill="none" stroke="#4ecdc4" stroke-width="1" opacity="0.4"/>
        <rect x="-30" y="10" width="60" height="70" rx="2" fill="#4ecdc4" opacity="0.08"/>
        <text x="0" y="40" text-anchor="middle" font-family="system-ui, -apple-system, sans-serif" font-size="10" font-weight="700" letter-spacing="2" fill="#4ecdc4">TRACE</text>
        <text x="0" y="58" text-anchor="middle" font-family="system-ui, -apple-system, sans-serif" font-size="7" fill="#4ecdc4" opacity="0.7">VERIFIED</text>
        <text y="105" text-anchor="middle" font-family="system-ui, -apple-system, sans-serif" font-size="8" fill="#4a4a4a" letter-spacing="3">SEAL</text>
      </g>
    </g>

    <text x="700" y="515" text-anchor="end" font-family="'SF Mono', 'Cascadia Code', monospace" font-size="11" fill="#3a3a3a">07</text>
    <text x="20" y="515" font-family="'SF Mono', 'Cascadia Code', monospace" font-size="9" fill="#3a3a3a" letter-spacing="2">PHYSICAL APPLICATION</text>
  </g>

  <!-- ============================================ -->
  <!-- PANEL 8: IMAGE DIRECTION                     -->
  <!-- ============================================ -->
  <g transform="translate(830, 1200)">
    <rect width="740" height="540" rx="4" fill="url(#panelGrad)"/>
    <rect width="740" height="540" rx="4" fill="none" stroke="#2a2a2a" stroke-width="0.5"/>

    <!-- Cinematic landscape -->
    <g transform="translate(60, 50)">
      <rect x="0" y="0" width="620" height="400" rx="6" fill="url(#skyGrad)" filter="url(#shadow)"/>
      <rect x="0" y="0" width="620" height="400" rx="6" fill="url(#halftone)"/>

      <!-- Abstract mountain layers -->
      <path d="M 0,400 L 0,320 L 80,260 L 150,300 L 220,240 L 300,280 L 380,220 L 450,260 L 520,230 L 620,280 L 620,400 Z" fill="#121212" opacity="0.6"/>
      <path d="M 0,400 L 0,350 L 120,300 L 200,330 L 280,290 L 350,310 L 430,260 L 500,290 L 620,320 L 620,400 Z" fill="#0a1628" opacity="0.5"/>
      <path d="M 0,400 L 0,370 L 180,340 L 280,360 L 380,320 L 480,340 L 620,350 L 620,400 Z" fill="#1a1a2e" opacity="0.4"/>

      <!-- Sun/Moon -->
      <circle cx="480" cy="100" r="30" fill="#f5f5f5" opacity="0.04"/>
      <circle cx="480" cy="100" r="20" fill="#f5f5f5" opacity="0.06"/>
      <circle cx="480" cy="100" r="10" fill="#f5f5f5" opacity="0.08"/>

      <!-- Tracking signal overlay -->
      <path d="M 50,200 Q 150,180 200,120 Q 250,60 320,100 Q 380,140 450,80 Q 520,30 580,70" stroke="#00b4d8" stroke-width="1.5" fill="none" opacity="0.3"/>
      <circle cx="200" cy="120" r="3" fill="#00b4d8" opacity="0.5"/>
      <circle cx="320" cy="100" r="3" fill="#00b4d8" opacity="0.5"/>
      <circle cx="450" cy="80" r="3" fill="#00b4d8" opacity="0.5"/>

      <!-- Position pin -->
      <circle cx="450" cy="80" r="6" fill="#ff6b6b" opacity="0.6"/>
      <circle cx="450" cy="80" r="2" fill="#f5f5f5" opacity="0.8"/>

      <!-- Subtle glow on horizon -->
      <ellipse cx="310" cy="280" rx="200" ry="20" fill="#00b4d8" opacity="0.04"/>

      <!-- Brand watermark -->
      <text x="310" y="360" text-anchor="middle" font-family="system-ui, -apple-system, sans-serif" font-size="24" font-weight="700" letter-spacing="10" fill="#f5f5f5" opacity="0.03">TRACE</text>

      <!-- Grid overlay -->
      <line x1="0" y1="200" x2="620" y2="200" stroke="#ffffff" stroke-width="0.3" opacity="0.04"/>
      <line x1="310" y1="0" x2="310" y2="400" stroke="#ffffff" stroke-width="0.3" opacity="0.04"/>
    </g>

    <text x="700" y="515" text-anchor="end" font-family="'SF Mono', 'Cascadia Code', monospace" font-size="11" fill="#3a3a3a">08</text>
    <text x="20" y="515" font-family="'SF Mono', 'Cascadia Code', monospace" font-size="9" fill="#3a3a3a" letter-spacing="2">IMAGE DIRECTION</text>
  </g>

  <!-- ============================================ -->
  <!-- PANEL 9: SYSTEM DETAIL                       -->
  <!-- ============================================ -->
  <g transform="translate(1600, 1200)">
    <rect width="740" height="540" rx="4" fill="url(#panelGrad)"/>
    <rect width="740" height="540" rx="4" fill="none" stroke="#2a2a2a" stroke-width="0.5"/>

    <g transform="translate(60, 80)">
      <text x="0" y="0" font-family="system-ui, -apple-system, sans-serif" font-size="13" font-weight="500" letter-spacing="3" fill="#6b7280">SYSTEM DETAIL</text>
      <line x1="0" y1="12" x2="40" y2="12" stroke="#00b4d8" stroke-width="1.5"/>

      <!-- Status badges -->
      <text x="0" y="50" font-family="system-ui, -apple-system, sans-serif" font-size="10" font-weight="500" letter-spacing="2" fill="#6b7280">STATUS BADGES</text>

      <rect x="0" y="65" width="80" height="24" rx="12" fill="#4ecdc4" opacity="0.12"/>
      <circle cx="16" cy="77" r="3" fill="#4ecdc4" filter="url(#glowSmall)"/>
      <text x="26" y="81" font-family="system-ui, -apple-system, sans-serif" font-size="9" fill="#4ecdc4">Active</text>

      <rect x="95" y="65" width="90" height="24" rx="12" fill="#00b4d8" opacity="0.12"/>
      <circle cx="111" cy="77" r="3" fill="#00b4d8"/>
      <text x="121" y="81" font-family="system-ui, -apple-system, sans-serif" font-size="9" fill="#00b4d8">In Transit</text>

      <rect x="200" y="65" width="85" height="24" rx="12" fill="#ff6b6b" opacity="0.12"/>
      <circle cx="216" cy="77" r="3" fill="#ff6b6b"/>
      <text x="226" y="81" font-family="system-ui, -apple-system, sans-serif" font-size="9" fill="#ff6b6b">Delayed</text>

      <rect x="300" y="65" width="75" height="24" rx="12" fill="#6b7280" opacity="0.12"/>
      <text x="316" y="81" font-family="system-ui, -apple-system, sans-serif" font-size="9" fill="#6b7280">Pending</text>

      <rect x="390" y="65" width="95" height="24" rx="12" fill="#f5f5f5" opacity="0.08"/>
      <text x="406" y="81" font-family="system-ui, -apple-system, sans-serif" font-size="9" fill="#888">Delivered</text>

      <!-- Input bar -->
      <text x="0" y="125" font-family="system-ui, -apple-system, sans-serif" font-size="10" font-weight="500" letter-spacing="2" fill="#6b7280">SEARCH / COMMAND</text>

      <rect x="0" y="140" width="400" height="36" rx="6" fill="#121212" stroke="#2a2a2a" stroke-width="0.5"/>
      <circle cx="20" cy="158" r="4" fill="none" stroke="#4a4a4a" stroke-width="1"/>
      <line x1="20" y1="161" x2="24" y2="157" stroke="#4a4a4a" stroke-width="1" stroke-linecap="round"/>
      <text x="35" y="163" font-family="system-ui, -apple-system, sans-serif" font-size="11" fill="#4a4a4a">Search shipments, assets, or locations...</text>
      <text x="375" y="163" font-family="system-ui, -apple-system, sans-serif" font-size="8" fill="#3a3a3a">⌘K</text>

      <!-- Command line -->
      <rect x="0" y="190" width="400" height="36" rx="6" fill="#0a0a0a" stroke="#2a2a2a" stroke-width="0.5"/>
      <text x="15" y="213" font-family="'SF Mono', 'Cascadia Code', monospace" font-size="10" fill="#00b4d8">$</text>
      <text x="30" y="213" font-family="'SF Mono', 'Cascadia Code', monospace" font-size="10" fill="#d0d0d0">trace track --shipment TR-4829</text>
      <circle cx="240" cy="213" r="2" fill="#4ecdc4"/>

      <!-- Icon row -->
      <text x="0" y="270" font-family="system-ui, -apple-system, sans-serif" font-size="10" font-weight="500" letter-spacing="2" fill="#6b7280">UI ICONS</text>

      <!-- Icon 1: Map pin -->
      <g transform="translate(0, 290)">
        <circle cx="12" cy="8" r="8" fill="none" stroke="#00b4d8" stroke-width="1.2"/>
        <path d="M 12,16 L 12,24" stroke="#00b4d8" stroke-width="1.2" stroke-linecap="round"/>
        <circle cx="12" cy="8" r="2.5" fill="#00b4d8"/>
        <text x="12" y="45" text-anchor="middle" font-family="system-ui, -apple-system, sans-serif" font-size="7" fill="#4a4a4a">Location</text>
      </g>

      <!-- Icon 2: Route -->
      <g transform="translate(60, 290)">
        <path d="M 0,20 Q 12,0 24,10 Q 36,20 48,10" stroke="#4ecdc4" stroke-width="1.2" fill="none" stroke-linecap="round"/>
        <circle cx="0" cy="20" r="2.5" fill="#4ecdc4"/>
        <circle cx="48" cy="10" r="2.5" fill="#4ecdc4"/>
        <text x="24" y="45" text-anchor="middle" font-family="system-ui, -apple-system, sans-serif" font-size="7" fill="#4a4a4a">Route</text>
      </g>

      <!-- Icon 3: Radar -->
      <g transform="translate(120, 290)">
        <circle cx="16" cy="16" r="14" fill="none" stroke="#ff6b6b" stroke-width="1.2"/>
        <path d="M 16,16 L 28,6" stroke="#ff6b6b" stroke-width="1.2" stroke-linecap="round"/>
        <circle cx="16" cy="16" r="2" fill="#ff6b6b"/>
        <text x="16" y="45" text-anchor="middle" font-family="system-ui, -apple-system, sans-serif" font-size="7" fill="#4a4a4a">Scan</text>
      </g>

      <!-- Icon 4: Dashboard -->
      <g transform="translate(180, 290)">
        <rect x="2" y="2" width="12" height="12" rx="2" fill="none" stroke="#6b7280" stroke-width="1.2"/>
        <rect x="18" y="2" width="12" height="12" rx="2" fill="none" stroke="#6b7280" stroke-width="1.2"/>
        <rect x="2" y="18" width="12" height="12" rx="2" fill="none" stroke="#6b7280" stroke-width="1.2"/>
        <rect x="18" y="18" width="12" height="12" rx="2" fill="none" stroke="#6b7280" stroke-width="1.2"/>
        <text x="16" y="45" text-anchor="middle" font-family="system-ui, -apple-system, sans-serif" font-size="7" fill="#4a4a4a">Grid</text>
      </g>

      <!-- Icon 5: Bell/Alert -->
      <g transform="translate(240, 290)">
        <path d="M 16,4 Q 8,4 8,14 L 6,18 L 26,18 L 24,14 Q 24,4 16,4 Z" fill="none" stroke="#6b7280" stroke-width="1.2" stroke-linejoin="round"/>
        <path d="M 12,20 Q 12,24 16,24 Q 20,24 20,20" fill="none" stroke="#6b7280" stroke-width="1.2" stroke-linecap="round"/>
        <circle cx="22" cy="6" r="4" fill="#ff6b6b" opacity="0.8"/>
        <text x="16" y="45" text-anchor="middle" font-family="system-ui, -apple-system, sans-serif" font-size="7" fill="#4a4a4a">Alerts</text>
      </g>

      <!-- Pattern detail strip -->
      <text x="0" y="370" font-family="system-ui, -apple-system, sans-serif" font-size="10" font-weight="500" letter-spacing="2" fill="#6b7280">PATTERN</text>

      <g transform="translate(0, 385)">
        <rect x="0" y="0" width="620" height="30" rx="4" fill="#121212"/>
        <!-- Repeating pattern -->
        <rect x="10" y="5" width="20" height="20" rx="3" fill="#00b4d8" opacity="0.15"/>
        <circle cx="24" cy="15" r="3" fill="#00b4d8" opacity="0.5"/>
        <rect x="40" y="5" width="20" height="20" rx="3" fill="#00b4d8" opacity="0.15"/>
        <circle cx="54" cy="15" r="3" fill="#00b4d8" opacity="0.5"/>
        <rect x="70" y="5" width="20" height="20" rx="3" fill="#00b4d8" opacity="0.15"/>
        <circle cx="84" cy="15" r="3" fill="#00b4d8" opacity="0.5"/>
        <rect x="100" y="5" width="20" height="20" rx="3" fill="#00b4d8" opacity="0.15"/>
        <circle cx="114" cy="15" r="3" fill="#00b4d8" opacity="0.5"/>
        <rect x="130" y="5" width="20" height="20" rx="3" fill="#00b4d8" opacity="0.15"/>
        <circle cx="144" cy="15" r="3" fill="#00b4d8" opacity="0.5"/>
        <rect x="160" y="5" width="20" height="20" rx="3" fill="#00b4d8" opacity="0.15"/>
        <circle cx="174" cy="15" r="3" fill="#00b4d8" opacity="0.5"/>
        <rect x="190" y="5" width="20" height="20" rx="3" fill="#00b4d8" opacity="0.15"/>
        <circle cx="204" cy="15" r="3" fill="#00b4d8" opacity="0.5"/>
        <rect x="220" y="5" width="20" height="20" rx="3" fill="#00b4d8" opacity="0.15"/>
        <circle cx="234" cy="15" r="3" fill="#00b4d8" opacity="0.5"/>
        <rect x="250" y="5" width="20" height="20" rx="3" fill="#00b4d8" opacity="0.15"/>
        <circle cx="264" cy="15" r="3" fill="#00b4d8" opacity="0.5"/>
        <rect x="280" y="5" width="20" height="20" rx="3" fill="#00b4d8" opacity="0.15"/>
        <circle cx="294" cy="15" r="3" fill="#00b4d8" opacity="0.5"/>
        <rect x="310" y="5" width="20" height="20" rx="3" fill="#00b4d8" opacity="0.15"/>
        <circle cx="324" cy="15" r="3" fill="#00b4d8" opacity="0.5"/>
        <rect x="340" y="5" width="20" height="20" rx="3" fill="#00b4d8" opacity="0.15"/>
        <circle cx="354" cy="15" r="3" fill="#00b4d8" opacity="0.5"/>
        <rect x="370" y="5" width="20" height="20" rx="3" fill="#00b4d8" opacity="0.15"/>
        <circle cx="384" cy="15" r="3" fill="#00b4d8" opacity="0.5"/>
        <rect x="400" y="5" width="20" height="20" rx="3" fill="#00b4d8" opacity="0.15"/>
        <circle cx="414" cy="15" r="3" fill="#00b4d8" opacity="0.5"/>
        <rect x="430" y="5" width="20" height="20" rx="3" fill="#00b4d8" opacity="0.15"/>
        <circle cx="444" cy="15" r="3" fill="#00b4d8" opacity="0.5"/>
        <rect x="460" y="5" width="20" height="20" rx="3" fill="#00b4d8" opacity="0.15"/>
        <circle cx="474" cy="15" r="3" fill="#00b4d8" opacity="0.5"/>
        <rect x="490" y="5" width="20" height="20" rx="3" fill="#00b4d8" opacity="0.15"/>
        <circle cx="504" cy="15" r="3" fill="#00b4d8" opacity="0.5"/>
        <rect x="520" y="5" width="20" height="20" rx="3" fill="#00b4d8" opacity="0.15"/>
        <circle cx="534" cy="15" r="3" fill="#00b4d8" opacity="0.5"/>
        <rect x="550" y="5" width="20" height="20" rx="3" fill="#00b4d8" opacity="0.15"/>
        <circle cx="564" cy="15" r="3" fill="#00b4d8" opacity="0.5"/>
        <rect x="580" y="5" width="20" height="20" rx="3" fill="#00b4d8" opacity="0.15"/>
        <circle cx="594" cy="15" r="3" fill="#00b4d8" opacity="0.5"/>
      </g>
    </g>

    <text x="700" y="515" text-anchor="end" font-family="'SF Mono', 'Cascadia Code', monospace" font-size="11" fill="#3a3a3a">09</text>
    <text x="20" y="515" font-family="'SF Mono', 'Cascadia Code', monospace" font-size="9" fill="#3a3a3a" letter-spacing="2">SYSTEM DETAIL</text>
  </g>

  <!-- Outer border -->
  <rect x="30" y="30" width="2340" height="1740" rx="6" fill="none" stroke="#2a2a2a" stroke-width="0.5"/>

  <!-- Footer bar -->
  <rect x="60" y="1745" width="2280" height="1" fill="#2a2a2a" opacity="0.5"/>
  <text x="60" y="1770" font-family="'SF Mono', 'Cascadia Code', monospace" font-size="9" fill="#3a3a3a">TRACE BRAND SYSTEM v1.0 — CONFIDENTIAL</text>
  <text x="2340" y="1770" text-anchor="end" font-family="'SF Mono', 'Cascadia Code', monospace" font-size="9" fill="#3a3a3a">BRAND GUIDELINES — 01</text>

  <!-- Alignment marks -->
  <g opacity="0.15">
    <circle cx="60" cy="60" r="2" fill="#00b4d8"/>
    <circle cx="2340" cy="60" r="2" fill="#00b4d8"/>
    <circle cx="60" cy="1740" r="2" fill="#00b4d8"/>
    <circle cx="2340" cy="1740" r="2" fill="#00b4d8"/>
  </g>
</svg>